<mxfile host="app.diagrams.net" modified="2021-06-08T06:22:14.475Z" agent="5.0 (Windows NT 10.0; Win64; x64) AppleWebKit/537.36 (KHTML, like Gecko) Chrome/91.0.4472.77 Safari/537.36" etag="wpYTdB1XKDWKZXs1Qb4_" version="14.7.6" type="github">
  <diagram id="M13Wj0ZHB5rZqMZAuIb5" name="Page-1">
    <mxGraphModel dx="1422" dy="762" grid="1" gridSize="10" guides="1" tooltips="1" connect="1" arrows="1" fold="1" page="1" pageScale="1" pageWidth="827" pageHeight="1169" math="0" shadow="0">
      <root>
        <mxCell id="0" />
        <mxCell id="1" parent="0" />
        <mxCell id="6ajDU1hLmqNZ5jqZJ445-2" value="&lt;font style=&quot;font-size: 36px&quot;&gt;BFF To BFF API calls&lt;/font&gt;" style="text;html=1;strokeColor=none;fillColor=none;align=center;verticalAlign=middle;whiteSpace=wrap;rounded=0;" parent="1" vertex="1">
          <mxGeometry x="214" y="30" width="400" height="120" as="geometry" />
        </mxCell>
        <mxCell id="6ajDU1hLmqNZ5jqZJ445-4" value="&lt;h1&gt;&lt;span&gt;Steps:&lt;/span&gt;&lt;/h1&gt;&lt;h1&gt;&lt;ol&gt;&lt;li&gt;&lt;span style=&quot;font-weight: normal&quot;&gt;&lt;font style=&quot;font-size: 12px&quot;&gt;Maintain all environment based bff service urls in consul(bff.consul.json should contain those service names).&lt;/font&gt;&lt;/span&gt;&lt;/li&gt;&lt;li&gt;&lt;span style=&quot;font-size: 12px ; font-weight: normal&quot;&gt;On Consul run create bff.product.config.json file with each product key.&lt;/span&gt;&lt;/li&gt;&lt;li&gt;&lt;span style=&quot;font-size: 12px ; font-weight: 400&quot;&gt;To decrease the repeated tms api call(like sso.filter and fetch.user.data), we must create a unique JWT token with redisKey that has all the necessary user details encoded in a secret along with some expiration using key X-BFF-Token and add it in request headers before the bff to bff api call&lt;/span&gt;&lt;/li&gt;&lt;li&gt;&lt;span style=&quot;font-size: 12px ; font-weight: 400&quot;&gt;Valid this token in the producer side and set necessary user details from the decoded jwt token and redisKey if present then skip sso.filter and fetch.user.data apis in producer side and go to the controllers directly&lt;/span&gt;&lt;/li&gt;&lt;/ol&gt;&lt;/h1&gt;" style="text;html=1;strokeColor=none;fillColor=none;spacing=5;spacingTop=-20;whiteSpace=wrap;overflow=hidden;rounded=0;" parent="1" vertex="1">
          <mxGeometry x="100" y="160" width="610" height="320" as="geometry" />
        </mxCell>
        <mxCell id="6ajDU1hLmqNZ5jqZJ445-7" style="edgeStyle=orthogonalEdgeStyle;rounded=0;orthogonalLoop=1;jettySize=auto;html=1;exitX=1;exitY=0.5;exitDx=0;exitDy=0;" parent="1" source="6ajDU1hLmqNZ5jqZJ445-5" target="6ajDU1hLmqNZ5jqZJ445-8" edge="1">
          <mxGeometry relative="1" as="geometry">
            <mxPoint x="280" y="560" as="targetPoint" />
          </mxGeometry>
        </mxCell>
        <mxCell id="6ajDU1hLmqNZ5jqZJ445-5" value="BFF 1(Home)" style="rounded=1;whiteSpace=wrap;html=1;fillColor=#d5e8d4;strokeColor=#82b366;" parent="1" vertex="1">
          <mxGeometry x="100" y="530" width="120" height="60" as="geometry" />
        </mxCell>
        <mxCell id="6ajDU1hLmqNZ5jqZJ445-13" style="edgeStyle=orthogonalEdgeStyle;rounded=0;orthogonalLoop=1;jettySize=auto;html=1;" parent="1" source="6ajDU1hLmqNZ5jqZJ445-6" target="6ajDU1hLmqNZ5jqZJ445-14" edge="1">
          <mxGeometry relative="1" as="geometry">
            <mxPoint x="387" y="870" as="targetPoint" />
          </mxGeometry>
        </mxCell>
        <mxCell id="6ajDU1hLmqNZ5jqZJ445-6" value="BFF 2(eproc)" style="rounded=1;whiteSpace=wrap;html=1;fillColor=#d5e8d4;strokeColor=#82b366;" parent="1" vertex="1">
          <mxGeometry x="327" y="750" width="120" height="60" as="geometry" />
        </mxCell>
        <mxCell id="6ajDU1hLmqNZ5jqZJ445-9" style="edgeStyle=orthogonalEdgeStyle;rounded=0;orthogonalLoop=1;jettySize=auto;html=1;" parent="1" source="6ajDU1hLmqNZ5jqZJ445-8" target="6ajDU1hLmqNZ5jqZJ445-10" edge="1">
          <mxGeometry relative="1" as="geometry">
            <mxPoint x="387" y="660" as="targetPoint" />
          </mxGeometry>
        </mxCell>
        <mxCell id="6ajDU1hLmqNZ5jqZJ445-8" value="get another bff product url from bff.product.config.json" style="shape=process;whiteSpace=wrap;html=1;backgroundOutline=1;fillColor=#e1d5e7;strokeColor=#9673a6;" parent="1" vertex="1">
          <mxGeometry x="294" y="530" width="186" height="60" as="geometry" />
        </mxCell>
        <mxCell id="6ajDU1hLmqNZ5jqZJ445-12" style="edgeStyle=orthogonalEdgeStyle;rounded=0;orthogonalLoop=1;jettySize=auto;html=1;entryX=0.5;entryY=0;entryDx=0;entryDy=0;" parent="1" source="6ajDU1hLmqNZ5jqZJ445-10" target="6ajDU1hLmqNZ5jqZJ445-6" edge="1">
          <mxGeometry relative="1" as="geometry" />
        </mxCell>
        <mxCell id="6ajDU1hLmqNZ5jqZJ445-10" value="Create JWT with the logged in user details and add it to request.headers before calling" style="shape=process;whiteSpace=wrap;html=1;backgroundOutline=1;fillColor=#e1d5e7;strokeColor=#9673a6;" parent="1" vertex="1">
          <mxGeometry x="290.5" y="630" width="193" height="70" as="geometry" />
        </mxCell>
        <mxCell id="6ajDU1hLmqNZ5jqZJ445-15" style="edgeStyle=orthogonalEdgeStyle;rounded=0;orthogonalLoop=1;jettySize=auto;html=1;" parent="1" source="6ajDU1hLmqNZ5jqZJ445-14" target="6ajDU1hLmqNZ5jqZJ445-16" edge="1">
          <mxGeometry relative="1" as="geometry">
            <mxPoint x="387" y="970" as="targetPoint" />
          </mxGeometry>
        </mxCell>
        <mxCell id="6ajDU1hLmqNZ5jqZJ445-14" value="Validate X-BFF-Token and get and set user details based on encoded redisKey data" style="shape=process;whiteSpace=wrap;html=1;backgroundOutline=1;fillColor=#e1d5e7;strokeColor=#9673a6;" parent="1" vertex="1">
          <mxGeometry x="285.5" y="850" width="204.5" height="90" as="geometry" />
        </mxCell>
        <mxCell id="6ajDU1hLmqNZ5jqZJ445-17" style="edgeStyle=orthogonalEdgeStyle;rounded=0;orthogonalLoop=1;jettySize=auto;html=1;" parent="1" source="6ajDU1hLmqNZ5jqZJ445-16" target="6ajDU1hLmqNZ5jqZJ445-18" edge="1">
          <mxGeometry relative="1" as="geometry">
            <mxPoint x="387" y="1140" as="targetPoint" />
          </mxGeometry>
        </mxCell>
        <mxCell id="6ajDU1hLmqNZ5jqZJ445-27" style="edgeStyle=orthogonalEdgeStyle;rounded=0;orthogonalLoop=1;jettySize=auto;html=1;fontFamily=Helvetica;" parent="1" source="6ajDU1hLmqNZ5jqZJ445-16" target="6ajDU1hLmqNZ5jqZJ445-25" edge="1">
          <mxGeometry relative="1" as="geometry" />
        </mxCell>
        <mxCell id="6ajDU1hLmqNZ5jqZJ445-16" value="Validate Token" style="rhombus;whiteSpace=wrap;html=1;fillColor=#ffe6cc;strokeColor=#d79b00;" parent="1" vertex="1">
          <mxGeometry x="305.5" y="990" width="164.5" height="90" as="geometry" />
        </mxCell>
        <mxCell id="6ajDU1hLmqNZ5jqZJ445-23" style="edgeStyle=orthogonalEdgeStyle;rounded=0;orthogonalLoop=1;jettySize=auto;html=1;exitX=0.5;exitY=1;exitDx=0;exitDy=0;fontFamily=Helvetica;entryX=0.75;entryY=1;entryDx=0;entryDy=0;" parent="1" source="6ajDU1hLmqNZ5jqZJ445-18" target="6ajDU1hLmqNZ5jqZJ445-5" edge="1">
          <mxGeometry relative="1" as="geometry">
            <mxPoint x="180" y="620" as="targetPoint" />
          </mxGeometry>
        </mxCell>
        <mxCell id="6ajDU1hLmqNZ5jqZJ445-18" value="Call The Controller and return the response" style="shape=process;whiteSpace=wrap;html=1;backgroundOutline=1;fillColor=#e1d5e7;strokeColor=#9673a6;" parent="1" vertex="1">
          <mxGeometry x="295.5" y="1130" width="183" height="70" as="geometry" />
        </mxCell>
        <mxCell id="6ajDU1hLmqNZ5jqZJ445-21" value="No" style="text;html=1;strokeColor=none;fillColor=none;align=center;verticalAlign=middle;whiteSpace=wrap;rounded=0;fontFamily=Helvetica;" parent="1" vertex="1">
          <mxGeometry x="480" y="1010" width="40" height="20" as="geometry" />
        </mxCell>
        <mxCell id="6ajDU1hLmqNZ5jqZJ445-22" value="Yes" style="text;html=1;strokeColor=none;fillColor=none;align=center;verticalAlign=middle;whiteSpace=wrap;rounded=0;fontFamily=Helvetica;" parent="1" vertex="1">
          <mxGeometry x="394" y="1080" width="40" height="20" as="geometry" />
        </mxCell>
        <mxCell id="6ajDU1hLmqNZ5jqZJ445-24" value="Return Success Response" style="text;html=1;strokeColor=none;fillColor=none;align=center;verticalAlign=middle;whiteSpace=wrap;rounded=0;fontFamily=Helvetica;" parent="1" vertex="1">
          <mxGeometry x="195.5" y="1190" width="100" height="30" as="geometry" />
        </mxCell>
        <mxCell id="6ajDU1hLmqNZ5jqZJ445-28" style="edgeStyle=orthogonalEdgeStyle;rounded=0;orthogonalLoop=1;jettySize=auto;html=1;entryX=1;entryY=0.5;entryDx=0;entryDy=0;fontFamily=Helvetica;" parent="1" source="6ajDU1hLmqNZ5jqZJ445-25" target="6ajDU1hLmqNZ5jqZJ445-18" edge="1">
          <mxGeometry relative="1" as="geometry">
            <Array as="points">
              <mxPoint x="627" y="1165" />
            </Array>
          </mxGeometry>
        </mxCell>
        <mxCell id="6ajDU1hLmqNZ5jqZJ445-33" style="edgeStyle=orthogonalEdgeStyle;rounded=0;orthogonalLoop=1;jettySize=auto;html=1;exitX=1;exitY=0.5;exitDx=0;exitDy=0;fontFamily=Helvetica;" parent="1" source="6ajDU1hLmqNZ5jqZJ445-25" target="6ajDU1hLmqNZ5jqZJ445-5" edge="1">
          <mxGeometry relative="1" as="geometry">
            <mxPoint x="100" y="1035" as="targetPoint" />
            <Array as="points">
              <mxPoint x="714" y="1035" />
              <mxPoint x="714" y="1260" />
              <mxPoint x="130" y="1260" />
            </Array>
          </mxGeometry>
        </mxCell>
        <mxCell id="6ajDU1hLmqNZ5jqZJ445-25" value="Check if its /u unauthorised url" style="rhombus;whiteSpace=wrap;html=1;fontFamily=Helvetica;fillColor=#ffe6cc;strokeColor=#d79b00;" parent="1" vertex="1">
          <mxGeometry x="560" y="990" width="134" height="90" as="geometry" />
        </mxCell>
        <mxCell id="6ajDU1hLmqNZ5jqZJ445-29" value="yes" style="text;html=1;strokeColor=none;fillColor=none;align=center;verticalAlign=middle;whiteSpace=wrap;rounded=0;fontFamily=Helvetica;" parent="1" vertex="1">
          <mxGeometry x="540" y="1140" width="40" height="20" as="geometry" />
        </mxCell>
        <mxCell id="6ajDU1hLmqNZ5jqZJ445-32" value="No" style="text;html=1;align=center;verticalAlign=middle;resizable=0;points=[];autosize=1;strokeColor=none;fontFamily=Helvetica;" parent="1" vertex="1">
          <mxGeometry x="710" y="1010" width="30" height="20" as="geometry" />
        </mxCell>
        <mxCell id="6ajDU1hLmqNZ5jqZJ445-34" value="Return Error Response" style="text;html=1;align=center;verticalAlign=middle;resizable=0;points=[];autosize=1;strokeColor=none;fontFamily=Helvetica;" parent="1" vertex="1">
          <mxGeometry x="530" y="1240" width="140" height="20" as="geometry" />
        </mxCell>
        <mxCell id="6ajDU1hLmqNZ5jqZJ445-37" style="edgeStyle=orthogonalEdgeStyle;rounded=0;orthogonalLoop=1;jettySize=auto;html=1;entryX=1;entryY=0.5;entryDx=0;entryDy=0;fontFamily=Helvetica;" parent="1" source="6ajDU1hLmqNZ5jqZJ445-36" target="6ajDU1hLmqNZ5jqZJ445-8" edge="1">
          <mxGeometry relative="1" as="geometry" />
        </mxCell>
        <mxCell id="6ajDU1hLmqNZ5jqZJ445-36" value="&lt;span&gt;Load bff.product.config.json before application start based on bff.consul.json file in config which contains all the ServiceName of registered in consul&lt;/span&gt;" style="rounded=0;whiteSpace=wrap;html=1;fontFamily=Helvetica;fillColor=#ffe6cc;strokeColor=#d79b00;" parent="1" vertex="1">
          <mxGeometry x="520" y="505" width="280" height="110" as="geometry" />
        </mxCell>
      </root>
    </mxGraphModel>
  </diagram>
</mxfile>
